# AST/ASF file generated using VICON BodyLanguage
# -----------------------------------------------
:version 1.10
:name VICON
:units
  mass 1.0
  length 0.45
  angle deg
:documentation
   .ast/.asf automatically generated from VICON data using
   VICON BodyBuilder and BodyLanguage model FoxedUp or BRILLIANT.MOD
:root
   order TX TY TZ RX RY RZ
   axis XYZ
   position 0 0 0  
   orientation 0 0 0 
:bonedata
  begin
     id 1 
     name lhipjoint
     direction 0.61886 -0.69539 0.365302 
     length 2.20474 
     axis 0 0 0  XYZ
  end
  begin
     id 2 
     name lfemur
     direction 0.34202 -0.939693 0  
     length 6.65149  
     axis 0 0 20  XYZ
    dof rx ry rz
    limits (-160.0 20.0)
           (-70.0 70.0)
           (-60.0 70.0)
  end
  begin
     id 3 
     name ltibia
     direction 0.34202 -0.939693 0   
     length 6.35814   
     axis 0 0 20   XYZ
    dof rx
    limits (-10.0 170.0)
  end
  begin
     id 4 
     name lfoot
     direction 0.101224 -0.278109 0.955201   
     length 2.18766   
     axis -90 7.62852e-016 20   XYZ
    dof rx rz
    limits (-45.0 90.0)
           (-70.0 20.0)
  end
  begin
     id 5 
     name ltoes
     direction 1.53524e-011 -4.21877e-011 1   
     length 1.09206   
     axis -90 7.62852e-016 20   XYZ
    dof rx
    limits (-90.0 20.0)
  end
  begin
     id 6 
     name rhipjoint
     direction -0.600207 -0.708087 0.371972   
     length 2.1652  
     axis 0 0 0  XYZ 
  end
  begin
     id 7 
     name rfemur
     direction -0.34202 -0.939693 0   
     length 6.54691   
     axis 0 0 -20   XYZ
    dof rx ry rz
    limits (-160.0 20.0)
           (-70.0 70.0)
           (-70.0 60.0)
  end
  begin
     id 8 
     name rtibia
     direction -0.34202 -0.939693 0   
     length 6.37474   
     axis 0 0 -20   XYZ
    dof rx
    limits (-10.0 170.0)
 end
 begin
     id 9 
     name rfoot
     direction -0.111266 -0.3057 0.945604   
     length 2.00903  
     axis -90 -7.62852e-016 -20   XYZ
    dof rx rz
    limits (-45.0 90.0)
           (-20.0 70.0)
  end
  begin
     id 10 
     name rtoes
     direction -1.5362e-011 -4.21913e-011 1   
     length 1.00221   
     axis -90 -7.62852e-016 -20   XYZ
    dof rx
    limits (-90.0 20.0)
  end
  begin
     id 11 
     name lowerback
     direction -0.0224561 0.999731 -0.00577314   
     length 2.10409   
     axis 0 0 0   XYZ
    dof rx ry rz
    limits (-20.0 45.0)
           (-30.0 30.0)
           (-30.0 30.0)
  end
  begin
     id 12 
     name upperback
     direction 0.0213126 0.999185 -0.0342817   
     length 2.09783   
     axis 0 0 0   XYZ
    dof rx ry rz
    limits (-20.0 45.0)
           (-30.0 30.0)
           (-30.0 30.0)
  end
  begin
     id 13 
     name thorax
     direction 0.0312356 0.999036 -0.0308451   
     length 2.09788   
     axis 0 0 0   XYZ
    dof rx ry rz
    limits (-20.0 45.0)
           (-30.0 30.0)
           (-30.0 30.0)
  end
  begin
     id 14 
     name lowerneck
     direction -0.0114419 0.996481 0.0830329   
     length 1.38575   
     axis 0 0 0   XYZ
    dof rx ry rz
    limits (-20.0 45.0)
           (-30.0 30.0)
           (-30.0 30.0)
  end
  begin
     id 15 
     name upperneck
     direction -0.0075675 0.996187 -0.0869092   
     length 1.39401   
     axis 0 0 0   XYZ
    dof rx ry rz
    limits (-20.0 45.0)
           (-30.0 30.0)
           (-30.0 30.0)
  end
  begin
     id 16
     name head
     direction -0.00222073 0.999264 -0.0382974  
     length 1.3964  
     axis 0 0 0   XYZ
    dof rx ry rz
    limits (-20.0 45.0)
           (-30.0 30.0)
           (-30.0 30.0)
  end
  begin
     id 17 
     name lclavicle
     direction 0.965962 0.222138 0.132556  
     length 2.81514  
     axis 0 0 0   XYZ
    dof ry rz
    limits (-20.0 10.0)
           (0.0 20.0)
  end
  begin
     id 18 
     name lhumerus
     direction 1 -4.48972e-011 7.03471e-018   
     length 4.47366   
     axis 180 -30 -90   XYZ
    dof rx ry rz
    limits (-60.0 90.0)
           (-90.0 90.0)
           (-90.0 90.0)
  end
  begin
     id 19
     name lradius
     direction 1 -4.48951e-011 -6.22192e-028   
     length 3.19948   
     axis 180 -30 -90   XYZ
    dof rx
    limits (-10.0 170.0)
  end
  begin
     id 20
     name lwrist
     direction 1 -4.48967e-011 -1.24264e-027   
     length 1.59974   
     axis 1.40095e-015 90 90   XYZ
    dof ry
    limits (-180.0 0.0)
 end
  begin
     id 21 
     name lhand
     direction 1 -4.4897e-011 -2.48528e-027   
     length 0.492667   
     axis 1.58582e-015 90 90   XYZ
    dof rx rz
    limits (-90.0 90.0)
           (-45.0 45.0)
  end
  begin
     id 22 
     name lfingers
     direction 1 -4.48996e-011 -4.97056e-027   
     length 0.397201   
     axis 3.17164e-015 90 90   XYZ
    dof rx
    limits (0.0 90.0)
  end
  begin
     id 23
     name lthumb
     direction 0.707107 -6.34981e-011 0.707107   
     length 0.570303   
     axis -90 45 2.85299e-015   XYZ
    dof rx rz
    limits (-45.0 45.0)
           (-45.0 45.0)
  end
  begin
     id 24 
     name rclavicle
     direction -0.961164 0.229034 0.153972   
     length 3.09348  
     axis 0 0 0   XYZ 
    dof ry rz
    limits (-10.0 20.0)
           (-20.0 0.0)
  end
  begin
     id 25 
     name rhumerus
     direction -1 -4.48971e-011 -9.06263e-028  
     length 4.3269   
     axis 180 30 90   XYZ
    dof rx ry rz
    limits (-90.0 60.0)
           (-90.0 90.0)
           (-90.0 90.0)
  end
  begin
     id 26 
     name rradius
     direction -1 -4.48953e-011 1.44659e-027   
     length 3.1896   
     axis 180 30 90   XYZ
    dof rx
    limits (-10.0 170.0)
  end
  begin
     id 27 
     name rwrist
     direction -1 -4.48988e-011 -1.24264e-027   
     length 1.5948   
     axis 1.40095e-015 -90 -90   XYZ
    dof ry
    limits (-180.0 0.0)
  end
  begin
     id 28
     name rhand
     direction -1 -4.49033e-011 -2.48528e-027   
     length 0.464496   
     axis 1.58582e-015 -90 -90   XYZ
    dof rx rz
    limits (-90.0 90.0)
           (-45.0 45.0)
  end
  begin
     id 29
     name rfingers
     direction -1 -4.48905e-011 -4.97056e-027   
     length 0.374489   
     axis 3.17164e-015 -90 -90   XYZ
    dof rx
    limits (0.0 90.0)
  end
  begin
     id 30
     name rthumb
     direction -0.707107 -6.34909e-011 0.707107   
     length 0.537693   
     axis -90 -45 -2.85299e-015   XYZ
    dof rx rz
    limits (-45.0 45.0)
           (-45.0 45.0)
  end
:hierarchy
  begin
    root lhipjoint rhipjoint lowerback
    lhipjoint lfemur
    lfemur ltibia
    ltibia lfoot
    lfoot ltoes
    rhipjoint rfemur
    rfemur rtibia
    rtibia rfoot
    rfoot rtoes
    lowerback upperback
    upperback thorax
    thorax lowerneck lclavicle rclavicle
    lowerneck upperneck
    upperneck head
    lclavicle lhumerus
    lhumerus lradius
    lradius lwrist
    lwrist lhand lthumb
    lhand lfingers
    rclavicle rhumerus
    rhumerus rradius
    rradius rwrist
    rwrist rhand rthumb
    rhand rfingers
  end

#!OML:ASF G:\acrobat\cartwheel_test 2\Patient 1\Session 2\acrobat4.ASF
:FULLY-SPECIFIED
:DEGREES
1649
root 1.57991 11.1134 -12.8977 5.98427 1.75543 6.53721
lowerback 9.20875 1.70461 -3.26434
upperback -5.81444 2.0699 2.17131
thorax -11.7029 1.36166 3.80434
lowerneck -20.1397 -0.344335 -3.51893
upperneck -16.6743 0.337683 1.06761
head -2.14304 0.369147 0.949645
rclavicle 2.39536e-014 1.27222e-014
rhumerus -8.538 -18.5303 -23.4013
rradius 37.1145
rwrist 3.33627
rhand -17.13 -33.666
rfingers 7.12502
rthumb 9.10988 -63.4492
lclavicle 2.39536e-014 1.27222e-014
lhumerus -7.97946 20.3743 14.8243
lradius 36.7537
lwrist 29.7018
lhand -38.1856 7.61111
lfingers 7.12502
lthumb -11.2183 37.2912
rfemur -33.3128 -11.0531 0.745715
rtibia 104.865
rfoot -36.9311 -10.0535
rtoes -39.763
lfemur -68.1348 12.2359 -17.2664
ltibia 91.2838
lfoot -26.2224 -1.19639
ltoes -23.0741
1650
root 1.60591 11.0638 -12.8794 5.90562 1.77579 6.56293
lowerback 9.51524 1.59011 -3.23738
upperback -5.919 1.89746 2.04015
thorax -11.9843 1.2769 3.67538
lowerneck -19.7545 -0.163274 -3.06573
upperneck -16.6429 0.49346 1.26604
head -2.18934 0.418064 0.943262
rclavicle 3.56818e-014 -3.18055e-015
rhumerus -8.01216 -21.429 -22.6523
rradius 34.2463
rwrist 5.58086
rhand -18.2355 -37.0079
rfingers 7.12502
rthumb 8.04308 -66.8349
lclavicle 3.56818e-014 -3.18055e-015
lhumerus -8.65994 19.9663 13.741
lradius 36.4064
lwrist 29.9593
lhand -38.8814 7.96789
lfingers 7.12502
lthumb -11.8893 37.6103
rfemur -33.3933 -11.2321 0.433264
rtibia 105.472
rfoot -36.8253 -9.79671
rtoes -39.0391
lfemur -68.4111 12.4286 -17.4583
ltibia 91.9536
lfoot -26.5244 -1.36181
ltoes -22.5897
1651
root 1.63614 11.0119 -12.8625 5.86112 1.80121 6.57118
lowerback 9.75672 1.71446 -3.16775
upperback -5.80596 2.07688 2.10828
thorax -12.0197 1.3587 3.67081
lowerneck -19.7086 -0.328647 -3.38266
upperneck -16.8277 0.341753 1.33384
head -2.25902 0.363146 1.0144
rclavicle 1.14301e-014 7.95139e-015
rhumerus -7.33163 -26.0952 -21.2562
rradius 31.1697
rwrist 9.27168
rhand -22.7019 -44.6255
rfingers 7.12502
rthumb 3.731 -74.5726
lclavicle 1.14301e-014 7.95139e-015
lhumerus -8.69433 20.5791 13.8497
lradius 35.9151
lwrist 29.8611
lhand -39.6142 8.2848
lfingers 7.12502
lthumb -12.5958 37.8851
rfemur -33.4476 -11.4464 0.100904
rtibia 106.058
rfoot -36.5171 -9.56362
rtoes -38.5597
lfemur -68.7409 12.6017 -17.6507
ltibia 92.6405
lfoot -26.8655 -1.38564
ltoes -22.5576
1652
root 1.66753 10.9602 -12.8506 5.77632 1.84511 6.44515
lowerback 10.0413 1.83657 -2.92143
upperback -5.64233 2.28343 2.21764
thorax -12.0191 1.43947 3.60407
lowerneck -19.9095 -0.532145 -3.84584
upperneck -16.8348 0.181841 1.48458
head -2.23091 0.311931 1.13753
rclavicle 7.40473e-015 4.77083e-015
rhumerus -6.92094 -30.1371 -19.82
rradius 28.7213
rwrist 11.7344
rhand -16.1946 -33.6699
rfingers 7.12502
rthumb 10.0124 -63.4118
lclavicle 7.40473e-015 4.77083e-015
lhumerus -8.75641 21.3808 14.0603
lradius 35.637
lwrist 30.1438
lhand -39.7077 8.18911
lfingers 7.12502
lthumb -12.686 37.7838
rfemur -33.4655 -11.7943 -0.133545
rtibia 106.611
rfoot -36.2655 -9.27112
rtoes -38.4882
lfemur -69.0506 12.7845 -17.6833
ltibia 93.3261
lfoot -27.2057 -1.31276
ltoes -23.0122
1653
root 1.70252 10.9079 -12.845 5.67317 1.79224 6.3839
lowerback 10.5238 1.74289 -2.61817
upperback -5.73155 2.18426 2.11982
thorax -12.3861 1.36843 3.33743
lowerneck -19.4506 -0.2963 -3.39646
upperneck -17.0649 0.390156 1.44917
head -2.38164 0.388737 1.05756
rclavicle -3.43897e-014 -2.06736e-014
rhumerus -6.76246 -31.7498 -19.1285
rradius 27.2591
rwrist 11.2804
rhand -23.8619 -39.015
rfingers 7.12502
rthumb 2.61072 -68.9788
lclavicle -3.43897e-014 -2.06736e-014
lhumerus -9.54723 21.5862 13.2558
lradius 35.7511
lwrist 30.9743
lhand -39.417 8.27463
lfingers 7.12502
lthumb -12.4057 37.8865
rfemur -33.576 -12.256 -0.57123
rtibia 107.194
rfoot -36.1788 -8.91604
rtoes -38.838
lfemur -69.3304 12.9417 -17.7784
ltibia 94.001
lfoot -27.5286 -1.14348
ltoes -23.4968
1654
root 1.74029 10.856 -12.845 5.61539 1.66764 6.4691
lowerback 11.1054 1.65136 -2.43468
upperback -5.82179 2.06815 2.00862
thorax -12.8222 1.2984 3.12729
lowerneck -18.8714 0.00235651 -2.80747
upperneck -17.5914 0.643025 1.21484
head -2.65449 0.481041 0.890008
rclavicle -5.23301e-014 -1.59028e-014
rhumerus -6.62323 -33.1924 -18.3874
rradius 26.2575
rwrist 10.9465
rhand -23.5609 -37.0582
rfingers 7.12502
rthumb 2.90142 -67.0182
lclavicle -5.23301e-014 -1.59028e-014
lhumerus -10.4685 22.0787 12.4267
lradius 35.9697
lwrist 31.8708
lhand -39.625 8.52935
lfingers 7.12502
lthumb -12.6063 38.129
rfemur -33.7834 -12.6236 -1.2102
rtibia 107.761
rfoot -36.2441 -8.62618
rtoes -39.3322
lfemur -69.6533 13.0624 -18.046
ltibia 94.6602
lfoot -27.8275 -0.971251
ltoes -23.5862
1655
root 1.77613 10.8036 -12.8498 5.6558 1.50882 6.49153
lowerback 11.6119 1.69193 -2.27765
upperback -5.74779 2.14487 2.04203
thorax -13.0482 1.32404 3.05016
lowerneck -18.8181 0.0809149 -2.89197
upperneck -18.0463 0.762436 1.2218
head -2.82876 0.547305 0.912351
rclavicle 6.70898e-015 2.54444e-014
rhumerus -6.56204 -35.4727 -17.1289
rradius 25.5156
rwrist 11.8858
rhand -20.4942 -31.8625
rfingers 7.12502
rthumb 5.86269 -61.7613
lclavicle 6.70898e-015 2.54444e-014
lhumerus -11.1736 23.161 12.0836
lradius 36.2124
lwrist 32.5669
lhand -40.3573 8.65842
lfingers 7.12502
lthumb -13.3122 38.2132
rfemur -34.136 -12.8982 -1.72764
rtibia 108.338
rfoot -36.4477 -8.06255
rtoes -39.3141
lfemur -70.1202 13.2185 -18.2109
ltibia 95.3332
lfoot -28.0921 -0.961893
ltoes -23.375
1656
root 1.80866 10.7496 -12.859 5.77755 1.33286 6.45563
lowerback 12.142 1.75311 -2.13543
upperback -5.7203 2.25214 2.09883
thorax -13.3473 1.36786 2.999
lowerneck -19.0929 0.0722319 -3.19099
upperneck -18.1344 0.834163 1.47274
head -2.8258 0.5998 1.05037
rclavicle 2.29596e-014 -1.74931e-014
rhumerus -6.73084 -37.2982 -15.7163
rradius 25.2151
rwrist 12.8694
rhand -19.0742 -30.0696
rfingers 7.12502
rthumb 7.23353 -59.926
lclavicle 2.29596e-014 -1.74931e-014
lhumerus -11.9455 24.1941 11.6826
lradius 36.574
lwrist 32.9852
lhand -41.1857 8.95291
lfingers 7.12502
lthumb -14.1105 38.4538
rfemur -34.5942 -13.2486 -2.14889
rtibia 108.946
rfoot -36.6756 -7.28204
rtoes -39.1313
lfemur -70.6843 13.4014 -18.2865
ltibia 96.008
lfoot -28.3586 -0.951399
ltoes -23.4358
1657
root 1.84128 10.6932 -12.8711 6.04877 1.19482 6.49788
lowerback 12.6386 1.79089 -2.05509
upperback -5.76198 2.31387 2.10712
thorax -13.7042 1.3941 2.93952
lowerneck -19.3219 0.0770991 -3.2358
upperneck -18.2542 0.86049 1.51605
head -2.83651 0.616264 1.07452
rclavicle 7.50412e-015 1.90833e-014
rhumerus -7.08935 -38.2862 -14.2657
rradius 25.3035
rwrist 13.3656
rhand -18.0884 -29.7725
rfingers 7.12502
rthumb 8.18499 -59.594
lclavicle 7.50412e-015 1.90833e-014
lhumerus -12.8507 24.8901 11.0925
lradius 37.083
lwrist 33.4812
lhand -41.4063 9.22454
lfingers 7.12502
lthumb -14.3232 38.7105
rfemur -35.1439 -13.8192 -2.65608
rtibia 109.556
rfoot -36.994 -6.77906
rtoes -39.3855
lfemur -71.4254 13.5067 -18.5345
ltibia 96.6662
lfoot -28.66 -0.587904
ltoes -24.1326
1658
root 1.87403 10.6299 -12.8852 6.52522 0.982662 6.45846
lowerback 12.9816 1.81552 -1.8982
upperback -5.82459 2.37705 2.12927
thorax -13.9884 1.4141 2.85372
lowerneck -19.2136 0.253924 -2.91618
upperneck -18.7767 1.00297 1.15004
head -3.04009 0.672516 0.903807
rclavicle -6.5102e-015 -6.36111e-015
rhumerus -7.40836 -38.5332 -13.0306
rradius 25.6832
rwrist 13.0503
rhand -17.3261 -29.4353
rfingers 7.12502
rthumb 8.9207 -59.2267
lclavicle -6.5102e-015 -6.36111e-015
lhumerus -13.927 25.3338 10.3105
lradius 37.6829
lwrist 34.1836
lhand -41.1848 9.36717
lfingers 7.12502
lthumb -14.1097 38.8681
rfemur -35.9584 -14.3875 -3.00926
rtibia 110.222
rfoot -37.392 -6.53208
rtoes -39.9059
lfemur -72.5083 13.6996 -18.7776
ltibia 97.395
lfoot -28.9359 -0.154635
ltoes -24.7883
1659
root 1.90476 10.5581 -12.9046 7.06658 0.705011 6.31527
lowerback 13.3377 1.84763 -1.66445
upperback -5.88379 2.47078 2.18249
thorax -14.2775 1.44242 2.75059
lowerneck -19.2969 0.386933 -2.99642
upperneck -19.0842 1.19282 1.12908
head -3.14579 0.773156 0.917594
rclavicle -2.01642e-014 -1.59028e-015
rhumerus -7.83809 -38.0404 -11.8355
rradius 26.3034
rwrist 11.9728
rhand -17.3594 -30.0713
rfingers 7.12502
rthumb 8.88858 -59.8641
lclavicle -2.01642e-014 -1.59028e-015
lhumerus -14.9924 25.9831 9.51044
lradius 38.2006
lwrist 34.7737
lhand -41.5977 9.63549
lfingers 7.12502
lthumb -14.5076 39.1083
rfemur -36.9383 -14.8517 -3.19786
rtibia 110.965
rfoot -37.7765 -6.28995
rtoes -40.7065
lfemur -73.7925 13.9904 -18.9193
ltibia 98.2114
lfoot -29.1566 0.156997
ltoes -24.9841
1660
root 1.93471 10.4838 -12.9286 7.63738 0.533482 6.30606
lowerback 13.7786 1.86409 -1.56108
upperback -5.94785 2.51624 2.2092
thorax -14.628 1.45862 2.70215
lowerneck -19.4301 0.473936 -3.21629
upperneck -19.3095 1.35382 1.17412
head -3.21634 0.867914 0.97648
rclavicle -1.44243e-014 -1.11319e-014
rhumerus -8.34921 -37.3745 -10.6107
rradius 26.9885
rwrist 10.7695
rhand -17.9245 -31.4998
rfingers 7.12502
rthumb 8.34317 -61.315
lclavicle -1.44243e-014 -1.11319e-014
lhumerus -15.9805 26.7909 8.77803
lradius 38.6339
lwrist 35.2878
lhand -42.5301 10.0416
lfingers 7.12502
lthumb -15.4058 39.4475
rfemur -37.9524 -15.4966 -3.57544
rtibia 111.784
rfoot -38.1515 -5.8134
rtoes -41.2147
lfemur -75.1597 14.0975 -19.2239
ltibia 99.0301
lfoot -29.3091 0.544467
ltoes -25.0905
